<svg width="42" height="46" viewBox="0 0 42 46" fill="none" xmlns="http://www.w3.org/2000/svg">
<path d="M37.7371 16.845C37.7371 16.845 36.4563 32.7313 35.7133 39.4232C35.3595 42.6193 33.3852 44.4922 30.1513 44.5511C23.9973 44.662 17.8362 44.6691 11.6845 44.5393C8.5733 44.4757 6.63204 42.5792 6.2853 39.4397C5.53757 32.6889 4.26383 16.845 4.26383 16.845M41 9.2298H1M33.2925 9.22975C31.4409 9.22975 29.8463 7.92063 29.4831 6.10673L28.9099 3.23847C28.5561 1.9152 27.3578 1 25.9921 1H16.0074C14.6417 1 13.4435 1.9152 13.0896 3.23847L12.5165 6.10673C12.1532 7.92063 10.5587 9.22975 8.70705 9.22975" stroke="white" stroke-width="1.3" stroke-linecap="round" stroke-linejoin="round"/>
</svg>
